<?xml version="1.0" encoding="UTF-8" standalone="no"?><!DOCTYPE svg PUBLIC "-//W3C//DTD SVG 1.1//EN" "http://www.w3.org/Graphics/SVG/1.1/DTD/svg11.dtd"><svg width="100%" height="100%" viewBox="0 0 16060 5105" version="1.1" xmlns="http://www.w3.org/2000/svg" xmlns:xlink="http://www.w3.org/1999/xlink" xml:space="preserve" xmlns:serif="http://www.serif.com/" style="fill-rule:evenodd;clip-rule:evenodd;stroke-linejoin:round;stroke-miterlimit:2;"><rect x="406.946" y="312.183" width="15260.729" height="4109.6" style="fill:#fff;"/><path d="M246.529,19.088l-57.292,17.362l-74.654,74.654l-74.654,72.917l-19.096,79.862l-20.833,78.125l1.738,2220.488l0,2220.487l17.362,69.446l19.096,69.446l72.917,71.179l71.179,72.917l138.888,38.196l15416.667,0l138.888,-38.196l57.292,-43.404l55.554,-41.667l34.721,-67.708l34.721,-69.446l-3.471,-2305.554l-5.208,-2307.292l-50.346,-71.179l-48.613,-71.179l-88.542,-45.138l-88.542,-43.404l-7734.375,1.737l-7736.113,1.737l-57.292,15.625l0.008,-0.012Zm8699.654,395.833l130.208,34.721l253.471,79.863l251.738,79.862l36.458,45.138l34.721,45.137l0,104.167l-29.513,32.987l-27.779,31.25l-81.596,0l-27.779,-43.404l-27.779,-41.667l-145.833,-48.612l-144.096,-46.875l-20.833,20.833l76.388,196.179l78.125,197.917l131.946,322.917l36.458,-10.417l34.721,-12.154l347.221,-17.362l114.583,27.779l116.321,26.042l93.75,43.404l95.487,43.404l104.167,78.125l104.167,79.862l71.179,92.013l69.446,92.013l90.279,180.554l26.042,107.638l26.042,109.375l0,296.875l-26.042,100.696l-27.779,102.429l-64.237,123.263l-62.5,123.262l-135.417,133.679l-133.679,133.679l-253.471,121.529l-145.833,29.513l-147.571,29.513l-112.846,-12.154l-114.583,-10.417l-208.333,-52.083l-112.846,-55.554l-112.846,-53.821l-138.887,-140.625l-140.625,-140.625l-53.821,-112.846l-55.554,-114.583l-27.779,-102.429l-26.042,-102.429l0,-298.612l26.042,-100.696l27.779,-102.429l121.529,-232.638l111.113,-114.583l111.112,-116.321l95.488,-52.083l93.75,-53.821l-45.137,-111.112l-46.875,-112.846l-29.513,0l-159.721,168.404l-157.988,170.137l-387.154,402.779l-385.417,402.779l20.833,135.417l-52.083,100.696l-43.404,39.929l-43.404,41.667l-67.708,8.679l-69.446,8.679l-52.083,-27.779l-53.821,-27.779l-76.388,-121.529l-322.917,0l-20.833,90.279l-22.571,92.013l-100.696,208.333l-142.362,184.029l-177.083,142.363l-121.529,57.292l-123.262,59.029l-270.833,52.083l-119.792,0l-133.679,-27.779l-133.679,-26.042l-128.471,-64.237l-130.208,-62.5l-123.263,-123.263l-123.262,-121.529l-62.5,-130.208l-64.238,-130.208l-29.512,-112.846l-27.779,-112.846l6.946,-173.613l8.679,-173.612l38.196,-109.375l38.196,-111.112l69.446,-111.112l71.179,-111.113l105.904,-97.221l107.638,-98.958l138.888,-64.237l138.888,-65.971l79.862,-15.625l79.862,-17.363l274.304,-6.946l126.737,36.458l128.471,36.458l85.071,41.667l83.333,43.404l34.721,0l388.888,-472.221l-32.988,-107.638l-34.721,-105.904l-133.679,-8.679l-135.417,-8.679l-15.625,-26.042l-17.363,-26.042l0,-100.696l29.513,-32.987l27.779,-31.25l826.387,0l26.042,27.779l27.779,26.042l0,74.654l-38.196,39.929l-36.458,39.929l-361.113,0l12.154,38.196l12.154,39.929l24.304,46.875l24.304,48.612l1593.75,0l8.679,-15.625l10.417,-13.888l-53.821,-144.096l-52.083,-142.363l10.417,-29.512l8.679,-29.513l-173.613,-55.554l-53.821,26.042l-52.083,26.042l-41.667,-27.779l-43.404,-27.779l0,-88.542l19.096,-34.721l17.363,-34.721l76.387,-31.25l53.821,0l53.821,-1.737l131.946,32.987l0,0.012Zm5663.196,2845.487l555.554,223.958l166.667,62.5l-291.667,118.054l-291.667,116.321l-364.583,151.042l-364.583,149.304l-20.833,10.417l-20.833,8.679l-5.208,-197.917l-5.208,-196.179l-2673.612,-10.417l-503.471,72.917l-468.75,138.888l-347.221,90.279l-503.471,3.471l-104.167,-24.304l-104.167,-22.571l-625,-173.612l-156.25,-32.987l-156.25,-34.721l-590.279,-20.833l-364.583,41.667l-208.333,52.083l-217.012,67.708l-217.013,65.971l-190.971,52.083l-250,38.196l-451.388,0l-184.029,-38.196l-78.125,-41.667l-78.125,-39.929l-189.237,-130.208l-190.971,-131.946l-38.196,0l-217.012,88.542l-215.279,86.804l-78.125,8.679l-78.125,10.417l-178.821,-107.638l-177.083,-105.904l-161.458,72.917l-159.721,72.917l-98.958,8.679l-100.696,6.946l-156.25,-72.917l-154.513,-74.654l-305.554,118.054l-130.208,-1.737l-130.208,-3.471l-100.696,-36.458l-102.429,-36.458l-123.263,34.721l-125,34.721l-104.167,0l-121.529,-32.987l-119.792,-32.988l-95.488,15.625l-97.221,15.625l-364.583,-34.721l-324.654,-10.417l-326.388,-10.417l0,-31.25l109.375,-1.737l107.638,0l607.637,-31.25l138.888,-27.779l138.888,-26.042l114.583,-10.417l112.846,-10.417l92.013,19.096l90.279,19.096l157.987,-45.137l156.25,-45.138l53.821,6.946l55.554,8.679l112.846,31.25l112.846,29.513l180.554,-71.179l178.821,-71.179l126.737,0l156.25,62.5l156.25,60.763l194.446,-86.804l196.179,-88.542l126.737,0l175.346,97.221l173.612,97.221l156.25,-64.238l157.987,-65.971l95.487,-32.987l95.487,-34.721l156.25,20.833l232.638,157.987l230.904,159.721l79.862,22.571l79.862,24.304l251.737,1.737l253.471,1.737l112.846,-29.513l112.846,-27.779l625,-187.5l295.138,-62.5l390.625,1.737l390.625,0l164.929,31.25l164.929,29.513l277.779,69.446l392.363,118.054l151.042,27.779l151.042,26.042l265.625,0l133.679,-26.042l131.946,-24.304l194.446,-60.763l194.446,-59.029l277.779,-72.917l413.196,-69.446l2789.929,0l0,-399.304l39.929,15.625l38.196,15.625l555.554,225.696l-0.004,0.012Z" style="fill:#f00;fill-rule:nonzero;"/><path d="M7500,1244.783l13.888,48.612l98.958,269.096l97.221,269.096l69.446,199.654l67.708,199.654l17.363,45.138l31.25,-22.571l29.512,-22.571l501.738,-517.362l500,-515.625l-1442.708,0l15.625,46.875l0,0.004Zm-347.221,232.638l-130.208,157.987l-27.779,48.612l67.708,83.333l67.708,81.596l36.458,62.5l38.196,62.5l26.042,76.388l27.779,76.388l17.363,208.333l6.946,20.833l6.946,22.571l347.221,0l17.363,-32.987l17.362,-31.25l-236.112,-656.25l-57.292,-170.138l-57.292,-168.404l-39.929,0l-128.471,157.987l-0.008,0Zm2526.042,142.362l-121.529,13.888l-27.779,27.779l104.167,270.833l105.904,270.833l0,38.196l121.529,114.583l0,128.471l-43.404,41.667l-41.667,43.404l-109.375,0l-50.346,-50.346l-50.346,-52.083l3.471,-149.304l-190.971,-503.471l-22.571,-48.612l-20.833,-46.875l-24.304,0l-79.862,53.821l-79.863,52.083l-71.179,85.071l-69.446,83.333l-55.554,118.054l-57.292,119.792l1.738,173.613l0,173.612l79.863,201.388l79.862,107.637l81.596,105.904l95.488,65.971l95.487,64.238l225.696,79.862l329.863,-3.471l98.958,-34.721l97.221,-36.458l83.333,-57.292l83.333,-55.554l71.179,-76.388l72.917,-76.388l45.138,-83.333l46.875,-83.333l55.554,-222.221l-20.833,-253.471l-60.762,-130.208l-59.029,-130.208l-104.167,-102.429l-102.429,-100.696l-95.488,-45.137l-97.221,-45.138l-218.75,-52.083l-52.083,3.471l-52.083,1.737l-0.004,-0.021Zm-3576.388,13.888l-138.888,45.138l-60.762,29.512l-60.763,31.25l-88.542,67.708l-90.279,65.971l-67.708,104.167l-69.446,102.429l-39.929,145.833l-38.196,144.096l19.096,138.888l19.096,137.154l50.346,107.637l50.346,109.375l76.388,81.596l74.654,81.596l173.612,111.112l86.804,27.779l86.804,29.513l190.971,20.833l208.333,-38.196l123.262,-60.763l125,-60.763l95.488,-102.429l95.488,-104.167l107.637,-215.279l0,-67.708l-402.779,5.208l-404.513,5.208l-38.196,-20.833l-39.929,-20.833l-13.888,-57.292l-15.625,-55.554l17.362,-48.612l15.625,-48.613l67.708,-34.721l67.708,-32.987l0,-26.042l194.446,-225.696l204.863,-250l-39.929,-27.779l-38.196,-27.779l-111.113,-32.987l-109.375,-34.721l-142.362,1.737l-140.625,0l0.004,0.012Z" style="fill:#f00;fill-rule:nonzero;"/><path d="M6793.404,1930.546l-53.821,57.292l-298.612,364.583l579.862,10.417l20.833,-8.679l22.571,-8.679l-26.042,-105.904l-24.304,-104.167l-43.404,-83.333l-43.404,-81.596l-39.929,-48.612l-39.929,-46.875l-53.821,55.554Z" style="fill:#f00;fill-rule:nonzero;"/><rect id="Artboard1" x="0" y="-0" width="16059.021" height="5104.167" style="fill:none;"/></svg>